<svg width="10" height="5" viewBox="0 0 10 5" fill="none" xmlns="http://www.w3.org/2000/svg">
<path d="M9.80763 0.986487L5.46126 4.83041C5.40069 4.88417 5.32872 4.92682 5.24947 4.95592C5.17023 4.98502 5.08526 5 4.99946 5C4.91365 5 4.82869 4.98502 4.74944 4.95592C4.67019 4.92682 4.59822 4.88417 4.53765 4.83041L0.191285 0.986487C0.0688072 0.878168 -1.82506e-09 0.731256 0 0.578069C1.82506e-09 0.424883 0.0688072 0.277971 0.191285 0.169652C0.313762 0.0613334 0.479877 0.000480595 0.653086 0.000480593C0.826296 0.000480592 0.992411 0.0613334 1.11489 0.169652L5 3.60564L8.88511 0.169172C9.00759 0.0608532 9.1737 0 9.34691 0C9.52012 0 9.68624 0.0608532 9.80871 0.169172C9.93119 0.277491 10 0.424403 10 0.577589C10 0.730775 9.93119 0.877687 9.80871 0.986006L9.80763 0.986487Z" fill="#010000"/>
</svg>
