<svg width="28" height="21" viewBox="0 0 28 21" fill="none" xmlns="http://www.w3.org/2000/svg">
<g clip-path="url(#clip0_194_495)">
<path d="M0 0H28V21H0V0Z" fill="#003399"/>
<path d="M14.0001 3.34131L13.689 4.37835L14.2075 4.48205L14.0001 3.34131Z" fill="#FFCC00"/>
<path d="M13.9999 3.34131L14.311 4.37835L13.7925 4.48205L13.9999 3.34131Z" fill="#FFCC00"/>
<path d="M14.9858 4.05785L13.9034 4.08242L13.965 4.60761L14.9858 4.05785Z" fill="#FFCC00"/>
<path d="M14.9859 4.05788L14.0958 4.67422L13.8369 4.21313L14.9859 4.05788Z" fill="#FFCC00"/>
<path d="M14.6091 5.21729L14.2513 4.19544L13.7708 4.41632L14.6091 5.21729Z" fill="#FFCC00"/>
<path d="M14.6091 5.21728L13.7479 4.56117L14.1064 4.17249L14.6091 5.21728Z" fill="#FFCC00"/>
<path d="M13.0137 4.05785L14.0961 4.08242L14.0345 4.60761L13.0137 4.05785Z" fill="#FFCC00"/>
<path d="M13.0136 4.05788L13.9038 4.67422L14.1626 4.21313L13.0136 4.05788Z" fill="#FFCC00"/>
<path d="M13.3904 5.21729L13.7482 4.19544L14.2287 4.41632L13.3904 5.21729Z" fill="#FFCC00"/>
<path d="M13.3904 5.21728L14.2516 4.56117L13.8931 4.17249L13.3904 5.21728Z" fill="#FFCC00"/>
<path d="M14.0001 15.7858L13.689 16.8228L14.2075 16.9265L14.0001 15.7858Z" fill="#FFCC00"/>
<path d="M13.9999 15.7858L14.311 16.8228L13.7925 16.9265L13.9999 15.7858Z" fill="#FFCC00"/>
<path d="M14.9858 16.5023L13.9034 16.5269L13.965 17.0521L14.9858 16.5023Z" fill="#FFCC00"/>
<path d="M14.9859 16.5023L14.0958 17.1187L13.8369 16.6576L14.9859 16.5023Z" fill="#FFCC00"/>
<path d="M14.6091 17.6617L14.2513 16.6399L13.7708 16.8608L14.6091 17.6617Z" fill="#FFCC00"/>
<path d="M14.6091 17.6617L13.7479 17.0056L14.1064 16.6169L14.6091 17.6617Z" fill="#FFCC00"/>
<path d="M13.0137 16.5023L14.0961 16.5269L14.0345 17.0521L13.0137 16.5023Z" fill="#FFCC00"/>
<path d="M13.0136 16.5023L13.9038 17.1187L14.1626 16.6576L13.0136 16.5023Z" fill="#FFCC00"/>
<path d="M13.3904 17.6617L13.7482 16.6399L14.2287 16.8608L13.3904 17.6617Z" fill="#FFCC00"/>
<path d="M13.3904 17.6617L14.2516 17.0056L13.8931 16.6169L13.3904 17.6617Z" fill="#FFCC00"/>
<path d="M7.77791 9.56348L7.4668 10.6005L7.98532 10.7042L7.77791 9.56348Z" fill="#FFCC00"/>
<path d="M7.77776 9.56348L8.08887 10.6005L7.57035 10.7042L7.77776 9.56348Z" fill="#FFCC00"/>
<path d="M8.76362 10.28L7.6812 10.3046L7.7428 10.8298L8.76362 10.28Z" fill="#FFCC00"/>
<path d="M8.76372 10.28L7.87358 10.8964L7.61472 10.4353L8.76372 10.28Z" fill="#FFCC00"/>
<path d="M8.38698 11.4395L8.02912 10.4176L7.54867 10.6385L8.38698 11.4395Z" fill="#FFCC00"/>
<path d="M8.38695 11.4394L7.5257 10.7833L7.88423 10.3947L8.38695 11.4394Z" fill="#FFCC00"/>
<path d="M6.79156 10.28L7.87398 10.3046L7.81237 10.8298L6.79156 10.28Z" fill="#FFCC00"/>
<path d="M6.79145 10.28L7.68159 10.8964L7.94045 10.4353L6.79145 10.28Z" fill="#FFCC00"/>
<path d="M7.1682 11.4395L7.52606 10.4176L8.0065 10.6385L7.1682 11.4395Z" fill="#FFCC00"/>
<path d="M7.16823 11.4394L8.02948 10.7833L7.67094 10.3947L7.16823 11.4394Z" fill="#FFCC00"/>
<path d="M10.3557 6.0979L11.217 5.44178L10.8584 5.05311L10.3557 6.0979Z" fill="#FFCC00"/>
<path d="M10.3557 6.09791L10.7136 5.07606L11.194 5.29694L10.3557 6.09791Z" fill="#FFCC00"/>
<path d="M9.97895 4.93837L10.8691 5.55471L11.128 5.09362L9.97895 4.93837Z" fill="#FFCC00"/>
<path d="M9.97906 4.93834L11.0615 4.96292L10.9999 5.4881L9.97906 4.93834Z" fill="#FFCC00"/>
<path d="M10.9654 4.2218L10.6543 5.25884L11.1728 5.36254L10.9654 4.2218Z" fill="#FFCC00"/>
<path d="M10.9653 4.2218L11.2764 5.25884L10.7578 5.36254L10.9653 4.2218Z" fill="#FFCC00"/>
<path d="M11.5749 6.0979L10.7137 5.44178L11.0722 5.05311L11.5749 6.0979Z" fill="#FFCC00"/>
<path d="M11.575 6.09791L11.2171 5.07606L10.7367 5.29694L11.575 6.09791Z" fill="#FFCC00"/>
<path d="M11.9517 4.93837L11.0616 5.55471L10.8027 5.09362L11.9517 4.93837Z" fill="#FFCC00"/>
<path d="M11.9516 4.93834L10.8692 4.96292L10.9308 5.4881L11.9516 4.93834Z" fill="#FFCC00"/>
<path d="M9.26784 8.40479L8.90998 7.38294L8.42953 7.60382L9.26784 8.40479Z" fill="#FFCC00"/>
<path d="M9.26781 8.40478L8.40656 7.74867L8.76509 7.35999L9.26781 8.40478Z" fill="#FFCC00"/>
<path d="M8.0486 8.40478L8.90985 7.74867L8.55131 7.35999L8.0486 8.40478Z" fill="#FFCC00"/>
<path d="M8.04857 8.40479L8.40643 7.38294L8.88688 7.60382L8.04857 8.40479Z" fill="#FFCC00"/>
<path d="M7.67182 7.24525L8.56196 7.8616L8.82082 7.40051L7.67182 7.24525Z" fill="#FFCC00"/>
<path d="M7.67193 7.24523L8.75435 7.2698L8.69274 7.79499L7.67193 7.24523Z" fill="#FFCC00"/>
<path d="M9.64458 7.24525L8.75444 7.8616L8.49558 7.40051L9.64458 7.24525Z" fill="#FFCC00"/>
<path d="M9.64448 7.24523L8.56206 7.2698L8.62366 7.79499L9.64448 7.24523Z" fill="#FFCC00"/>
<path d="M8.65813 6.52869L8.96924 7.56572L8.45072 7.66943L8.65813 6.52869Z" fill="#FFCC00"/>
<path d="M8.65828 6.52869L8.34717 7.56572L8.86569 7.66943L8.65828 6.52869Z" fill="#FFCC00"/>
<path d="M9.64594 13.4824L8.56352 13.507L8.62513 14.0322L9.64594 13.4824Z" fill="#FFCC00"/>
<path d="M9.64605 13.4824L8.75591 14.0988L8.49705 13.6377L9.64605 13.4824Z" fill="#FFCC00"/>
<path d="M9.2693 14.6419L8.91144 13.62L8.431 13.8409L9.2693 14.6419Z" fill="#FFCC00"/>
<path d="M9.26927 14.6418L8.40802 13.9857L8.76656 13.5971L9.26927 14.6418Z" fill="#FFCC00"/>
<path d="M8.05006 14.6418L8.91131 13.9857L8.55278 13.5971L8.05006 14.6418Z" fill="#FFCC00"/>
<path d="M8.05003 14.6419L8.40789 13.62L8.88834 13.8409L8.05003 14.6419Z" fill="#FFCC00"/>
<path d="M8.65959 12.7659L8.9707 13.8029L8.45218 13.9066L8.65959 12.7659Z" fill="#FFCC00"/>
<path d="M8.65974 12.7659L8.34863 13.8029L8.86715 13.9066L8.65974 12.7659Z" fill="#FFCC00"/>
<path d="M7.67339 13.4824L8.75581 13.507L8.69421 14.0322L7.67339 13.4824Z" fill="#FFCC00"/>
<path d="M7.67329 13.4824L8.56343 14.0988L8.82229 13.6377L7.67329 13.4824Z" fill="#FFCC00"/>
<path d="M11.8964 15.5697L10.814 15.5943L10.8756 16.1195L11.8964 15.5697Z" fill="#FFCC00"/>
<path d="M11.8965 15.5697L11.0064 16.1861L10.7475 15.725L11.8965 15.5697Z" fill="#FFCC00"/>
<path d="M11.5198 16.7291L11.1619 15.7073L10.6815 15.9282L11.5198 16.7291Z" fill="#FFCC00"/>
<path d="M11.5198 16.7291L10.6585 16.073L11.017 15.6843L11.5198 16.7291Z" fill="#FFCC00"/>
<path d="M10.3006 16.7291L11.1618 16.073L10.8033 15.6843L10.3006 16.7291Z" fill="#FFCC00"/>
<path d="M10.3005 16.7291L10.6584 15.7073L11.1388 15.9282L10.3005 16.7291Z" fill="#FFCC00"/>
<path d="M10.9101 14.8531L11.2212 15.8902L10.7027 15.9939L10.9101 14.8531Z" fill="#FFCC00"/>
<path d="M10.9102 14.8531L10.5991 15.8902L11.1176 15.9939L10.9102 14.8531Z" fill="#FFCC00"/>
<path d="M9.92388 15.5697L11.0063 15.5943L10.9447 16.1195L9.92388 15.5697Z" fill="#FFCC00"/>
<path d="M9.92378 15.5697L10.8139 16.1861L11.0728 15.725L9.92378 15.5697Z" fill="#FFCC00"/>
<path d="M20.2221 9.56348L20.5332 10.6005L20.0147 10.7042L20.2221 9.56348Z" fill="#FFCC00"/>
<path d="M20.2222 9.56348L19.9111 10.6005L20.4297 10.7042L20.2222 9.56348Z" fill="#FFCC00"/>
<path d="M19.2364 10.28L20.3188 10.3046L20.2572 10.8298L19.2364 10.28Z" fill="#FFCC00"/>
<path d="M19.2363 10.28L20.1264 10.8964L20.3853 10.4353L19.2363 10.28Z" fill="#FFCC00"/>
<path d="M19.613 11.4395L19.9709 10.4176L20.4513 10.6385L19.613 11.4395Z" fill="#FFCC00"/>
<path d="M19.6131 11.4394L20.4743 10.7833L20.1158 10.3947L19.6131 11.4394Z" fill="#FFCC00"/>
<path d="M21.2084 10.28L20.126 10.3046L20.1876 10.8298L21.2084 10.28Z" fill="#FFCC00"/>
<path d="M21.2085 10.28L20.3184 10.8964L20.0595 10.4353L21.2085 10.28Z" fill="#FFCC00"/>
<path d="M20.8318 11.4395L20.4739 10.4176L19.9935 10.6385L20.8318 11.4395Z" fill="#FFCC00"/>
<path d="M20.8318 11.4394L19.9705 10.7833L20.3291 10.3947L20.8318 11.4394Z" fill="#FFCC00"/>
<path d="M17.6443 6.0979L16.783 5.44178L17.1416 5.05311L17.6443 6.0979Z" fill="#FFCC00"/>
<path d="M17.6443 6.09791L17.2864 5.07606L16.806 5.29694L17.6443 6.09791Z" fill="#FFCC00"/>
<path d="M18.021 4.93837L17.1309 5.55471L16.872 5.09362L18.021 4.93837Z" fill="#FFCC00"/>
<path d="M18.0209 4.93834L16.9385 4.96292L17.0001 5.4881L18.0209 4.93834Z" fill="#FFCC00"/>
<path d="M17.0346 4.2218L17.3457 5.25884L16.8272 5.36254L17.0346 4.2218Z" fill="#FFCC00"/>
<path d="M17.0347 4.2218L16.7236 5.25884L17.2422 5.36254L17.0347 4.2218Z" fill="#FFCC00"/>
<path d="M16.4251 6.0979L17.2863 5.44178L16.9278 5.05311L16.4251 6.0979Z" fill="#FFCC00"/>
<path d="M16.425 6.09791L16.7829 5.07606L17.2633 5.29694L16.425 6.09791Z" fill="#FFCC00"/>
<path d="M16.0483 4.93837L16.9384 5.55471L17.1973 5.09362L16.0483 4.93837Z" fill="#FFCC00"/>
<path d="M16.0484 4.93834L17.1308 4.96292L17.0692 5.4881L16.0484 4.93834Z" fill="#FFCC00"/>
<path d="M18.7322 8.40479L19.09 7.38294L19.5705 7.60382L18.7322 8.40479Z" fill="#FFCC00"/>
<path d="M18.7322 8.40478L19.5934 7.74867L19.2349 7.35999L18.7322 8.40478Z" fill="#FFCC00"/>
<path d="M19.9514 8.40478L19.0902 7.74867L19.4487 7.35999L19.9514 8.40478Z" fill="#FFCC00"/>
<path d="M19.9514 8.40479L19.5936 7.38294L19.1131 7.60382L19.9514 8.40479Z" fill="#FFCC00"/>
<path d="M20.3282 7.24525L19.438 7.8616L19.1792 7.40051L20.3282 7.24525Z" fill="#FFCC00"/>
<path d="M20.3281 7.24523L19.2457 7.2698L19.3073 7.79499L20.3281 7.24523Z" fill="#FFCC00"/>
<path d="M18.3554 7.24525L19.2456 7.8616L19.5044 7.40051L18.3554 7.24525Z" fill="#FFCC00"/>
<path d="M18.3555 7.24523L19.4379 7.2698L19.3763 7.79499L18.3555 7.24523Z" fill="#FFCC00"/>
<path d="M19.3419 6.52869L19.0308 7.56572L19.5493 7.66943L19.3419 6.52869Z" fill="#FFCC00"/>
<path d="M19.3417 6.52869L19.6528 7.56572L19.1343 7.66943L19.3417 6.52869Z" fill="#FFCC00"/>
<path d="M18.3541 13.4824L19.4365 13.507L19.3749 14.0322L18.3541 13.4824Z" fill="#FFCC00"/>
<path d="M18.354 13.4824L19.2441 14.0988L19.503 13.6377L18.354 13.4824Z" fill="#FFCC00"/>
<path d="M18.7307 14.6419L19.0886 13.62L19.569 13.8409L18.7307 14.6419Z" fill="#FFCC00"/>
<path d="M18.7307 14.6418L19.592 13.9857L19.2334 13.5971L18.7307 14.6418Z" fill="#FFCC00"/>
<path d="M19.9499 14.6418L19.0887 13.9857L19.4472 13.5971L19.9499 14.6418Z" fill="#FFCC00"/>
<path d="M19.95 14.6419L19.5921 13.62L19.1117 13.8409L19.95 14.6419Z" fill="#FFCC00"/>
<path d="M19.3404 12.7659L19.0293 13.8029L19.5478 13.9066L19.3404 12.7659Z" fill="#FFCC00"/>
<path d="M19.3403 12.7659L19.6514 13.8029L19.1328 13.9066L19.3403 12.7659Z" fill="#FFCC00"/>
<path d="M20.3266 13.4824L19.2442 13.507L19.3058 14.0322L20.3266 13.4824Z" fill="#FFCC00"/>
<path d="M20.3267 13.4824L19.4366 14.0988L19.1777 13.6377L20.3267 13.4824Z" fill="#FFCC00"/>
<path d="M16.1036 15.5697L17.186 15.5943L17.1244 16.1195L16.1036 15.5697Z" fill="#FFCC00"/>
<path d="M16.1035 15.5697L16.9936 16.1861L17.2525 15.725L16.1035 15.5697Z" fill="#FFCC00"/>
<path d="M16.4802 16.7291L16.8381 15.7073L17.3185 15.9282L16.4802 16.7291Z" fill="#FFCC00"/>
<path d="M16.4802 16.7291L17.3415 16.073L16.983 15.6843L16.4802 16.7291Z" fill="#FFCC00"/>
<path d="M17.6994 16.7291L16.8382 16.073L17.1967 15.6843L17.6994 16.7291Z" fill="#FFCC00"/>
<path d="M17.6995 16.7291L17.3416 15.7073L16.8612 15.9282L17.6995 16.7291Z" fill="#FFCC00"/>
<path d="M17.0899 14.8531L16.7788 15.8902L17.2973 15.9939L17.0899 14.8531Z" fill="#FFCC00"/>
<path d="M17.0898 14.8531L17.4009 15.8902L16.8824 15.9939L17.0898 14.8531Z" fill="#FFCC00"/>
<path d="M18.0761 15.5697L16.9937 15.5943L17.0553 16.1195L18.0761 15.5697Z" fill="#FFCC00"/>
<path d="M18.0762 15.5697L17.1861 16.1861L16.9272 15.725L18.0762 15.5697Z" fill="#FFCC00"/>
</g>
<defs>
<clipPath id="clip0_194_495">
<rect width="28" height="21" fill="white"/>
</clipPath>
</defs>
</svg>
