<svg width="12" height="12" viewBox="0 0 12 12" fill="none" xmlns="http://www.w3.org/2000/svg">
<path d="M6.66667 0.666667V2.44444C6.66667 2.62126 6.59643 2.79082 6.4714 2.91585C6.34638 3.04087 6.17681 3.11111 6 3.11111C5.82319 3.11111 5.65362 3.04087 5.5286 2.91585C5.40357 2.79082 5.33333 2.62126 5.33333 2.44444V0.666667C5.33333 0.489856 5.40357 0.320286 5.5286 0.195262C5.65362 0.0702379 5.82319 0 6 0C6.17681 0 6.34638 0.0702379 6.4714 0.195262C6.59643 0.320286 6.66667 0.489856 6.66667 0.666667ZM8.51389 4.15278C8.6015 4.15277 8.68825 4.1355 8.76919 4.10195C8.85012 4.06839 8.92364 4.01921 8.98556 3.95722L10.2428 2.7C10.368 2.57476 10.4384 2.4049 10.4384 2.22778C10.4384 2.05066 10.368 1.8808 10.2428 1.75556C10.1175 1.63031 9.94767 1.55995 9.77056 1.55995C9.59344 1.55995 9.42357 1.63031 9.29833 1.75556L8.04278 3.01444C7.94947 3.10765 7.8859 3.22643 7.86012 3.35577C7.83433 3.48511 7.84749 3.61919 7.89792 3.74105C7.94836 3.86291 8.0338 3.96707 8.14344 4.04036C8.25309 4.11365 8.38201 4.15277 8.51389 4.15278ZM11.3333 5.33333H9.55556C9.37874 5.33333 9.20918 5.40357 9.08415 5.5286C8.95913 5.65362 8.88889 5.82319 8.88889 6C8.88889 6.17681 8.95913 6.34638 9.08415 6.4714C9.20918 6.59643 9.37874 6.66667 9.55556 6.66667H11.3333C11.5101 6.66667 11.6797 6.59643 11.8047 6.4714C11.9298 6.34638 12 6.17681 12 6C12 5.82319 11.9298 5.65362 11.8047 5.5286C11.6797 5.40357 11.5101 5.33333 11.3333 5.33333ZM8.98556 8.04278C8.92354 7.98076 8.84992 7.93157 8.7689 7.89801C8.68787 7.86445 8.60103 7.84718 8.51333 7.84718C8.42563 7.84718 8.33879 7.86445 8.25777 7.89801C8.17674 7.93157 8.10312 7.98076 8.04111 8.04278C7.9791 8.10479 7.92991 8.17841 7.89635 8.25944C7.86278 8.34046 7.84551 8.4273 7.84551 8.515C7.84551 8.6027 7.86278 8.68954 7.89635 8.77056C7.92991 8.85159 7.9791 8.92521 8.04111 8.98722L9.29833 10.2444C9.42357 10.3697 9.59344 10.44 9.77056 10.44C9.94767 10.44 10.1175 10.3697 10.2428 10.2444C10.368 10.1192 10.4384 9.94934 10.4384 9.77222C10.4384 9.5951 10.368 9.42524 10.2428 9.3L8.98556 8.04278ZM6 8.88889C5.82319 8.88889 5.65362 8.95913 5.5286 9.08415C5.40357 9.20918 5.33333 9.37874 5.33333 9.55556V11.3333C5.33333 11.5101 5.40357 11.6797 5.5286 11.8047C5.65362 11.9298 5.82319 12 6 12C6.17681 12 6.34638 11.9298 6.4714 11.8047C6.59643 11.6797 6.66667 11.5101 6.66667 11.3333V9.55556C6.66667 9.37874 6.59643 9.20918 6.4714 9.08415C6.34638 8.95913 6.17681 8.88889 6 8.88889ZM3.01444 8.04278L1.75722 9.3C1.63198 9.42524 1.56162 9.5951 1.56162 9.77222C1.56162 9.94934 1.63198 10.1192 1.75722 10.2444C1.88246 10.3697 2.05233 10.44 2.22944 10.44C2.40656 10.44 2.57643 10.3697 2.70167 10.2444L3.95889 8.98722C4.08413 8.86198 4.15449 8.69212 4.15449 8.515C4.15449 8.33788 4.08413 8.16802 3.95889 8.04278C3.83365 7.91754 3.66378 7.84718 3.48667 7.84718C3.30955 7.84718 3.13969 7.91754 3.01444 8.04278ZM3.11111 6C3.11111 5.82319 3.04087 5.65362 2.91585 5.5286C2.79082 5.40357 2.62126 5.33333 2.44444 5.33333H0.666667C0.489856 5.33333 0.320286 5.40357 0.195262 5.5286C0.0702379 5.65362 0 5.82319 0 6C0 6.17681 0.0702379 6.34638 0.195262 6.4714C0.320286 6.59643 0.489856 6.66667 0.666667 6.66667H2.44444C2.62126 6.66667 2.79082 6.59643 2.91585 6.4714C3.04087 6.34638 3.11111 6.17681 3.11111 6ZM2.7 1.75722C2.57476 1.63198 2.4049 1.56162 2.22778 1.56162C2.05066 1.56162 1.8808 1.63198 1.75556 1.75722C1.63031 1.88246 1.55995 2.05233 1.55995 2.22944C1.55995 2.40656 1.63031 2.57643 1.75556 2.70167L3.01444 3.95722C3.13969 4.08246 3.30955 4.15282 3.48667 4.15282C3.66378 4.15282 3.83365 4.08246 3.95889 3.95722C4.08413 3.83198 4.15449 3.66212 4.15449 3.485C4.15449 3.30788 4.08413 3.13802 3.95889 3.01278L2.7 1.75722Z" fill="#333333"/>
</svg>
