<svg width="24" height="21" viewBox="0 0 24 21" fill="none" xmlns="http://www.w3.org/2000/svg">
<path d="M14 15.4993C14 15.7077 13.9115 15.9075 13.754 16.0548C13.5965 16.2021 13.3828 16.2849 13.16 16.2849H2.87053L6.47676 19.6567C6.63455 19.8043 6.7232 20.0044 6.7232 20.2131C6.7232 20.4218 6.63455 20.622 6.47676 20.7695C6.31896 20.9171 6.10494 21 5.88178 21C5.65863 21 5.44461 20.9171 5.28681 20.7695L0.247051 16.0564C0.168744 15.9834 0.106612 15.8967 0.0642174 15.8012C0.0218229 15.7058 0 15.6034 0 15.5C0 15.3966 0.0218229 15.2942 0.0642174 15.1988C0.106612 15.1033 0.168744 15.0166 0.247051 14.9436L5.28681 10.2305C5.36494 10.1574 5.4577 10.0994 5.55979 10.0599C5.66187 10.0204 5.77129 10 5.88178 10C5.99228 10 6.1017 10.0204 6.20378 10.0599C6.30587 10.0994 6.39862 10.1574 6.47676 10.2305C6.55489 10.3035 6.61687 10.3903 6.65915 10.4858C6.70144 10.5812 6.7232 10.6835 6.7232 10.7869C6.7232 10.8902 6.70144 10.9925 6.65915 11.088C6.61687 11.1835 6.55489 11.2702 6.47676 11.3433L2.87053 14.7138H13.16C13.3828 14.7138 13.5965 14.7966 13.754 14.9439C13.9115 15.0912 14 15.291 14 15.4993Z" fill="#3284EA"/>
<path d="M10 5.50065C10 5.29232 10.0885 5.09252 10.246 4.94521C10.4035 4.79789 10.6172 4.71513 10.84 4.71513L21.1295 4.71513L17.5232 1.34329C17.3654 1.19572 17.2768 0.995576 17.2768 0.786882C17.2768 0.578188 17.3654 0.378042 17.5232 0.230473C17.681 0.0829035 17.8951 -7.66392e-07 18.1182 -7.46883e-07C18.3414 -7.27374e-07 18.5554 0.0829036 18.7132 0.230473L23.7529 4.94359C23.8313 5.01657 23.8934 5.10328 23.9358 5.19877C23.9782 5.29425 24 5.39661 24 5.5C24 5.60339 23.9782 5.70575 23.9358 5.80124C23.8934 5.89672 23.8313 5.98343 23.7529 6.05641L18.7132 10.7695C18.6351 10.8426 18.5423 10.9006 18.4402 10.9401C18.3381 10.9796 18.2287 11 18.1182 11C18.0077 11 17.8983 10.9796 17.7962 10.9401C17.6941 10.9006 17.6014 10.8426 17.5232 10.7695C17.4451 10.6965 17.3831 10.6097 17.3408 10.5142C17.2986 10.4188 17.2768 10.3165 17.2768 10.2131C17.2768 10.1098 17.2986 10.0075 17.3408 9.91199C17.3831 9.81652 17.4451 9.72978 17.5232 9.65671L21.1295 6.28617L10.84 6.28617C10.6172 6.28617 10.4035 6.20341 10.246 6.0561C10.0885 5.90879 10 5.70899 10 5.50065Z" fill="#3284EA"/>
</svg>
